<?xml version="1.0" encoding="UTF-8"?>
<svg xmlns="http://www.w3.org/2000/svg" viewBox="0 0 289.33 193">
  <defs>
    <style>
      .cls-1 {
        fill: #f064a5;
      }

      .cls-2 {
        fill: #f494be;
      }

      .cls-3 {
        fill: #f47c63;
      }

      .cls-4 {
        fill: #e98bb9;
      }

      .cls-5 {
        fill: #ef3750;
      }

      .cls-6 {
        fill: #a97c50;
      }

      .cls-7 {
        fill: #d1d3d4;
      }

      .cls-8 {
        fill: #232627;
      }

      .cls-9 {
        fill: #634c9f;
      }

      .cls-10 {
        fill: #e8702c;
        mix-blend-mode: screen;
      }

      .cls-11 {
        isolation: isolate;
      }
    </style>
  </defs>
  <g class="cls-11">
    <g id="Layer_2" data-name="Layer 2">
      <g id="Layer_1-2" data-name="Layer 1">
        <path class="cls-10" d="M289,96.72c0,21.66-7.14,41.67-19.2,57.79L192.5,.38v-.38c53.35,.26,96.5,43.46,96.5,96.72Z"/>
        <path class="cls-8" d="M193,.37v.38l-.19-.39c.06,0,.13,0,.19,.01Z"/>
        <polygon class="cls-6" points="192.81 .36 192.79 .36 192.8 .35 192.81 .36"/>
        <path class="cls-3" d="M269.9,154.22c-17.5,23.42-45.42,38.62-76.9,38.77l-.21-192.99,77.11,154.22Z"/>
        <path class="cls-5" d="M289.33,193h-96.33c31.48-.16,59.4-15.39,76.9-38.85l19.43,38.85Z"/>
        <path class="cls-6" d="M193,192.99h0s-.5,.01-.5,.01c.17,0,.33,0,.5-.01Z"/>
        <path class="cls-9" d="M96,96.5c0,21.82,7.24,41.96,19.46,58.12l-19.2,38.38H0V0H192.5c-53.3,0-96.5,43.2-96.5,96.5Z"/>
        <path class="cls-4" d="M192.79,0L115.46,154.62c-12.22-16.16-19.46-36.3-19.46-58.12C96,43.2,139.2,0,192.5,0h.29Z"/>
        <path class="cls-2" d="M193,192.99h0c-31.68,.17-59.83-14.94-77.53-38.37L192.79,0h.02l.19,192.99Z"/>
        <path class="cls-1" d="M192.5,193H96.26l19.2-38.38c17.61,23.31,45.56,38.38,77.04,38.38Z"/>
        <path class="cls-7" d="M193,192.99h0s-.5,.01-.5,.01c.17,0,.33,0,.5-.01Z"/>
      </g>
    </g>
  </g>
</svg>